<svg width="370" height="240" viewBox="0 0 37 24" fill="none" xmlns="http://www.w3.org/2000/svg">
<path d="M12.1875 16.3594V0.25H15.1875V16.3594C15.1875 17.8594 14.8802 19.125 14.2656 20.1562C13.651 21.1875 12.8021 21.974 11.7188 22.5156C10.6458 23.0469 9.41146 23.3125 8.01562 23.3125C6.61979 23.3125 5.38021 23.0729 4.29688 22.5938C3.21354 22.1146 2.36458 21.3854 1.75 20.4062C1.13542 19.4271 0.828125 18.1927 0.828125 16.7031H3.84375C3.84375 17.6615 4.02083 18.4479 4.375 19.0625C4.72917 19.6771 5.21875 20.1302 5.84375 20.4219C6.47917 20.7135 7.20312 20.8594 8.01562 20.8594C8.80729 20.8594 9.51562 20.6927 10.1406 20.3594C10.776 20.0156 11.276 19.5104 11.6406 18.8438C12.0052 18.1667 12.1875 17.3385 12.1875 16.3594ZM28.7031 0.25V23H25.7344V0.25H28.7031ZM36.0156 0.25V2.71875H18.4375V0.25H36.0156Z" fill="#666666"/>
</svg>
